<svg xmlns="http://www.w3.org/2000/svg" width="48" height="48" viewBox="0 0 48 48" fill="none">
  <path d="M24 4C12.954 4 4 12.954 4 24C4 35.046 12.954 44 24 44C35.046 44 44 35.046 44 24C44 12.954 35.046 4 24 4Z" fill="#1A1A1A"/>
  <path d="M24 12L28 20H36L30 26L32 34L24 30L16 34L18 26L12 20H20L24 12Z" stroke="#D4AF37" stroke-width="2" stroke-linecap="round" stroke-linejoin="round"/>
  <path d="M24 22C25.1046 22 26 21.1046 26 20C26 18.8954 25.1046 18 24 18C22.8954 18 22 18.8954 22 20C22 21.1046 22.8954 22 24 22Z" fill="#D4AF37"/>
</svg> 