<svg xmlns="http://www.w3.org/2000/svg" width="48" height="48" viewBox="0 0 48 48" fill="none">
  <path d="M24 4C12.954 4 4 12.954 4 24C4 35.046 12.954 44 24 44C35.046 44 44 35.046 44 24C44 12.954 35.046 4 24 4Z" fill="#1A1A1A"/>
  <path d="M32 16H16C14.895 16 14 16.895 14 18V30C14 31.105 14.895 32 16 32H32C33.105 32 34 31.105 34 30V18C34 16.895 33.105 16 32 16Z" stroke="#D4AF37" stroke-width="2" stroke-linecap="round" stroke-linejoin="round"/>
  <path d="M24 20C22.895 20 22 20.895 22 22V26C22 27.105 22.895 28 24 28C25.105 28 26 27.105 26 26V22C26 20.895 25.105 20 24 20Z" fill="#D4AF37"/>
  <path d="M18 24H16" stroke="#D4AF37" stroke-width="2" stroke-linecap="round" stroke-linejoin="round"/>
  <path d="M32 24H30" stroke="#D4AF37" stroke-width="2" stroke-linecap="round" stroke-linejoin="round"/>
  <path d="M24 32V36" stroke="#D4AF37" stroke-width="2" stroke-linecap="round" stroke-linejoin="round"/>
</svg> 